<svg xmlns="http://www.w3.org/2000/svg" style="display:none;">
    <symbol id="brimstone" viewBox="0 0 100 100">
        <path d="M50 10v40M30 30h40M30 45h40M50 50c-15 0-20 15-5 15s20-15 35-15 10 15-5 15-20-15-25-15z"
            stroke="currentColor" stroke-width="5" fill="none" />
    </symbol>
    <symbol id="pentagram" viewBox="0 0 100 100">
        <path d="M50 5 L61 38 H96 L68 59 L79 93 L50 72 L21 93 L32 59 L4 38 H39 Z" stroke="currentColor"
            stroke-width="3" fill="none" />
        <circle cx="50" cy="55" r="40" stroke="currentColor" stroke-width="2" fill="none" />
    </symbol>
    <symbol id="chaos" viewBox="0 0 100 100">
        <path d="M50 10 L50 90 M10 50 L90 50 M22 22 L78 78 M22 78 L78 22" stroke="currentColor"
            stroke-width="4" />
        <path d="M50 5 L45 15 H55 Z M95 50 L85 45 V55 Z M50 95 L45 85 H55 Z M5 50 L15 45 V55 Z"
            fill="currentColor" />
    </symbol>
    <symbol id="void" viewBox="0 0 100 100">
        <path
            d="M50 50 m-5 0 a 5 5 0 1 0 10 0 a 5 5 0 1 0 -10 0 M50 50 m-15 0 a 15 15 0 1 0 30 0 a 15 15 0 1 0 -30 0 M50 50 m-25 0 a 25 25 0 1 0 50 0 a 25 25 0 1 0 -50 0 M50 50 m-35 0 a 35 35 0 1 0 70 0 a 35 35 0 1 0 -70 0"
            stroke="currentColor" stroke-width="2" fill="none" stroke-dasharray="5,5" />
    </symbol>
</svg>
